<svg width="280" height="220" viewBox="0 0 280 220" fill="none" xmlns="http://www.w3.org/2000/svg">
  <rect width="280" height="220" rx="28" fill="#ffffff"/>
  <rect x="54" y="68" width="172" height="92" rx="22" fill="#eff6ff"/>
  <rect x="74" y="86" width="132" height="58" rx="14" fill="#ffffff"/>
  <circle cx="102" cy="110" r="8" fill="#2563eb"/>
  <circle cx="128" cy="110" r="8" fill="#60a5fa"/>
  <circle cx="154" cy="110" r="8" fill="#38bdf8"/>
  <path d="M80 142H200" stroke="#94a3b8" stroke-width="10" stroke-linecap="round"/>
  <path d="M88 80H192" stroke="#2563eb" stroke-width="10" stroke-linecap="round"/>
  <path d="M120 100H164" stroke="#0f172a" stroke-width="10" stroke-linecap="round"/>
  <rect x="66" y="40" width="148" height="30" rx="14" fill="#38bdf8"/>
  <text x="140" y="62" text-anchor="middle" font-size="18" fill="#ffffff" font-family="Inter, sans-serif">FIND</text>
  <path d="M210 136C210 146.493 202.493 154 192 154H176L168 168L160 154H142C131.507 154 124 146.493 124 136V118C124 107.507 131.507 100 142 100H192C202.493 100 210 107.507 210 118V136Z" fill="#dbeafe" stroke="#2563eb" stroke-width="10"/>
</svg>